<svg viewBox="0 0 220 235" xmlns="http://www.w3.org/2000/svg">
  <!-- Gentera / Compartamos Banco logo — 5-petal multicolor leaf -->
  <g transform="translate(108,112)">
    <!-- Blue petal — lower-left -->
    <path d="M0,55 C-55,40 -85,-10 -68,-72 C-38,-85 -5,-45 0,55 Z" fill="#2878BF"/>
    <!-- Teal petal — left -->
    <path d="M0,55 C-60,25 -85,-30 -62,-90 C-28,-102 8,-55 0,55 Z" fill="#2BAA9A"/>
    <!-- Magenta petal — lower-right -->
    <path d="M0,55 C30,30 72,15 88,-22 C78,-62 38,-62 0,55 Z" fill="#CC006E"/>
    <!-- Orange petal — upper-right -->
    <path d="M0,55 C22,10 62,-18 72,-75 C40,-105 2,-72 0,55 Z" fill="#E07820"/>
    <!-- Purple petal — upper (front) -->
    <path d="M0,55 C-18,5 -28,-58 0,-100 C28,-88 38,-22 0,55 Z" fill="#6B3FA8"/>
  </g>
  <!-- ® symbol -->
  <circle cx="175" cy="187" r="15" fill="none" stroke="#9CA3AF" stroke-width="1.5"/>
  <text x="175" y="192" font-family="Arial,sans-serif" font-size="13" font-weight="500" text-anchor="middle" fill="#9CA3AF">R</text>
</svg>
